<?xml version="1.0" encoding="UTF-8" standalone="no"?>
<svg
   width="124"
   height="28.02"
   viewBox="0 0 124 28.02"
   version="1.1"
   id="svg43"
   sodipodi:docname="solight-logo.svg"
   inkscape:version="1.2.2 (b0a8486541, 2022-12-01)"
   xmlns:inkscape="http://www.inkscape.org/namespaces/inkscape"
   xmlns:sodipodi="http://sodipodi.sourceforge.net/DTD/sodipodi-0.dtd"
   xmlns:xlink="http://www.w3.org/1999/xlink"
   xmlns="http://www.w3.org/2000/svg"
   xmlns:svg="http://www.w3.org/2000/svg">
  <sodipodi:namedview
     id="namedview45"
     pagecolor="#ffffff"
     bordercolor="#000000"
     borderopacity="0.25"
     inkscape:showpageshadow="2"
     inkscape:pageopacity="0.0"
     inkscape:pagecheckerboard="0"
     inkscape:deskcolor="#d1d1d1"
     showgrid="false"
     inkscape:zoom="10.290323"
     inkscape:cx="44.119122"
     inkscape:cy="13.99373"
     inkscape:window-width="2560"
     inkscape:window-height="1360"
     inkscape:window-x="1920"
     inkscape:window-y="28"
     inkscape:window-maximized="1"
     inkscape:current-layer="svg43" />
  <defs
     id="defs9">
    <path
       id="fcpka"
       d="M74.4 56.56c-1.6 0-3-.6-4.3-1.45-.7-.46-1.35-.98-2.04-1.44-.62-.4-1.31-.65-2.05-.7-1.21-.07-2.11.5-2.82 1.42-.12.15-.21.32-.32.47-.22.29-.42.34-.75.2l-1.9-.81c-.37-.16-.5-.4-.3-.75 1.08-1.98 2.53-3.53 4.87-3.96 1.03-.18 2.04 0 3.01.35 1.08.38 2.06.95 2.96 1.67.62.5 1.25.95 2 1.25a3.7 3.7 0 0 0 4.29-1c.26-.29.49-.6.71-.92.27-.37.42-.43.83-.24l1.8.85c.5.24.56.44.28.9a9.13 9.13 0 0 1-3.64 3.55 5.6 5.6 0 0 1-2.63.61zM69.6 39l-.3.06c-.64.08-1.3.12-1.94.25-2.8.56-5.25 1.82-7.2 3.92a13.83 13.83 0 0 0-3.62 12.45 13.25 13.25 0 0 0 7.34 9.84 14.34 14.34 0 0 0 9.38 1.2c3.26-.61 5.98-2.2 8.06-4.8 2.74-3.4 3.53-7.33 2.82-11.58a13.2 13.2 0 0 0-4.08-7.6 13.44 13.44 0 0 0-7.45-3.56c-.5-.07-1.01-.12-1.52-.18z" />
    <path
       id="fcpkb"
       d="M132.53 51.13h10.27v-.35-8.17c0-.6.22-.82.83-.82h1.25c.47 0 .7.23.7.7v20.96c0 .58-.2.78-.8.78h-1.22c-.53 0-.76-.23-.76-.76v-9.83h-10.27v9.79c0 .6-.2.8-.8.8h-1.29c-.45 0-.69-.24-.69-.69V42.48c0-.44.25-.68.7-.69h1.33c.53 0 .75.23.75.77v8.2z" />
    <path
       id="fcpkc"
       d="M122.3 61.77v-.35-8.08c0-.58.17-.74.75-.74h1.4c.41 0 .63.22.63.63v10.05c0 .42-.2.67-.62.71-1.45.15-2.9.3-4.35.42-1.03.07-2.07.09-3.09-.11a7.09 7.09 0 0 1-5.55-4.68 11.55 11.55 0 0 1-.75-4.2c-.01-1.76-.02-3.53.02-5.3.03-1.62.36-3.19 1.12-4.65 1.04-2 2.69-3.18 4.86-3.67 1.15-.26 2.31-.23 3.48-.2 1.46.03 2.91.18 4.36.42.39.06.5.2.5.58v1.29c0 .3-.1.42-.41.4-.85-.04-1.7-.13-2.55-.15-1.28-.03-2.57-.07-3.84-.02-2.1.1-3.6 1.29-4.28 3.29-.37 1.1-.5 2.23-.52 3.39-.01 1.56-.03 3.13.01 4.7.04 1.51.3 2.99 1.1 4.32a4.14 4.14 0 0 0 3.6 2.13c1.28.03 2.56-.08 3.84-.13.1 0 .18-.03.3-.05" />
    <path
       id="fcpkd"
       d="M46.82 64.44c-1.57.01-3.2-.19-4.81-.45-.38-.06-.47-.2-.46-.58V62.3c0-.36.16-.53.53-.52l3.24.14c1.31.04 2.63.13 3.93-.2 1.79-.45 2.38-1.56 2.47-3.1a2.9 2.9 0 0 0-1.07-2.43c-1-.9-2.16-1.57-3.3-2.27-1.13-.7-2.27-1.37-3.37-2.12a7.5 7.5 0 0 1-2.42-2.52c-.97-1.73-.74-4.91 1.22-6.32a7.3 7.3 0 0 1 3.2-1.22c1.5-.24 3.01-.19 4.52-.07.99.07 1.98.17 2.97.29.41.04.53.2.53.63v1.1c0 .42-.23.6-.63.59-1.36-.06-2.7-.14-4.06-.17-.92-.01-1.84.01-2.76.08-.42.03-.86.15-1.26.3-.97.35-1.39 1.1-1.49 2.1-.08.88.2 1.65.86 2.22.7.6 1.46 1.14 2.24 1.64 1.46.93 2.97 1.78 4.42 2.74.7.48 1.36 1.07 1.95 1.69a5.15 5.15 0 0 1 1.32 4.1 5.56 5.56 0 0 1-1.18 3.2 5.77 5.77 0 0 1-3.02 1.86c-1.14.33-2.31.4-3.57.4" />
    <path
       id="fcpke"
       d="M158.24 44.18V63.3l-.01.37c-.04.33-.25.54-.58.54h-1.6c-.33 0-.54-.2-.57-.54v-.3-19.2H149.75c-.13 0-.26-.02-.39-.04-.28-.05-.4-.23-.41-.5-.01-.42-.02-.83 0-1.25.01-.36.25-.58.6-.6h14.33c.66 0 .8.15.8.82v.94c0 .43-.18.6-.6.62h-5.5z" />
    <path
       id="fcpkf"
       d="M87.77 50.99v-8.46c0-.53.2-.74.74-.74h1.34c.42 0 .67.25.7.67V59.1c0 .38.06.76.12 1.13.12.75.58 1.2 1.3 1.43a7.5 7.5 0 0 0 2.32.29h5.58c.42 0 .49.06.49.47v1.17c0 .46-.09.58-.55.61-.92.07-1.85.15-2.78.18-1.23.04-2.46.1-3.7.03-.84-.04-1.7-.2-2.5-.43a3.98 3.98 0 0 1-2.87-3.25 8.64 8.64 0 0 1-.18-1.7c-.02-2.68 0-5.37 0-8.05" />
    <path
       id="fcpkg"
       d="M103.55 53.01V42.53c0-.58.16-.74.74-.74h1.4c.4 0 .6.2.63.6v20.98c0 .15 0 .3-.04.45-.08.25-.25.4-.53.4h-1.65a.55.55 0 0 1-.55-.54v-.25V53" />
  </defs>
  <use
     fill="#ff7900"
     xlink:href="#fcpka"
     id="use11"
     transform="translate(-41,-39)" />
  <use
     fill="#10252f"
     xlink:href="#fcpkb"
     id="use15"
     transform="translate(-41,-39)"
     style="fill:#ffffff" />
  <use
     fill="#10252f"
     xlink:href="#fcpkc"
     id="use19"
     transform="translate(-41,-39)"
     style="fill:#ffffff" />
  <use
     fill="#10252f"
     xlink:href="#fcpkd"
     id="use23"
     transform="translate(-41,-39)"
     style="fill:#ffffff" />
  <use
     fill="#10252f"
     xlink:href="#fcpke"
     id="use27"
     transform="translate(-41,-39)"
     style="fill:#ffffff" />
  <use
     fill="#10252f"
     xlink:href="#fcpkf"
     id="use31"
     transform="translate(-41,-39)"
     style="fill:#ffffff" />
  <use
     fill="#10252f"
     xlink:href="#fcpkg"
     id="use35"
     transform="translate(-41,-39)"
     style="fill:#ffffff" />
</svg>
