<svg width="256" height="256" version="1.1" xmlns="http://www.w3.org/2000/svg" desc="Created with imagetracer.js version 1.2.6" ><path fill="rgb(254,126,0)" stroke="rgb(254,126,0)" stroke-width="1" opacity="0.5019607843137255" d="M 114.5 0 L 120 0.5 L 114.5 1 L 114.5 0 Z " /><path fill="rgb(254,126,0)" stroke="rgb(254,126,0)" stroke-width="1" opacity="0.5019607843137255" d="M 137.5 0 L 144 0.5 L 137.5 1 L 137.5 0 Z " /><path fill="rgb(254,126,0)" stroke="rgb(254,126,0)" stroke-width="1" opacity="0.5019607843137255" d="M 106.5 1 L 112 1.5 L 106.5 2 L 106.5 1 Z " /><path fill="rgb(254,126,0)" stroke="rgb(254,126,0)" stroke-width="1" opacity="0.5019607843137255" d="M 146.5 1 L 151 1.5 L 146.5 2 L 146.5 1 Z " /><path fill="rgb(254,126,0)" stroke="rgb(254,126,0)" stroke-width="1" opacity="0.5019607843137255" d="M 100.5 2 L 104 2.5 L 100.5 3 L 100.5 2 Z " /><path fill="rgb(254,126,0)" stroke="rgb(254,126,0)" stroke-width="1" opacity="0.5019607843137255" d="M 153.5 2 L 157 2.5 L 153.5 3 L 153.5 2 Z " /><path fill="rgb(254,126,0)" stroke="rgb(254,126,0)" stroke-width="1" opacity="0.5019607843137255" d="M 95.5 3 L 99 3.5 L 92.5 5 L 92.5 4 L 95.5 3 Z " /><path fill="rgb(254,126,0)" stroke="rgb(254,126,0)" stroke-width="1" opacity="0.5019607843137255" d="M 158.5 3 L 165 4.5 L 162.5 5 L 158.5 4 L 158.5 3 Z " /><path fill="rgb(254,126,0)" stroke="rgb(254,126,0)" stroke-width="1" opacity="0.5019607843137255" d="M 88.5 5 L 91 5.5 L 85.5 7 L 85.5 6 L 88.5 5 Z " /><path fill="rgb(254,126,0)" stroke="rgb(254,126,0)" stroke-width="1" opacity="0.5019607843137255" d="M 166.5 5 Q 176.9 6.6 184 11.5 L 182.5 12 Q 176.3 7.2 166.5 6 L 166.5 5 Z " /><path fill="rgb(254,126,0)" stroke="rgb(254,126,0)" stroke-width="1" opacity="0.5019607843137255" d="M 82.5 7 L 84 7.5 L 77.5 10 L 77.5 9 L 82.5 7 Z " /><path fill="rgb(254,126,0)" stroke="rgb(254,126,0)" stroke-width="1" opacity="0.5019607843137255" d="M 74.5 10 L 76 10.5 Q 48.5 22 31 43.5 L 15.5 66 L 16 64.5 Q 27.6 42.1 46.5 27 Q 58.8 16.8 74.5 10 Z " /><path fill="rgb(254,126,0)" stroke="rgb(254,126,0)" stroke-width="1" opacity="0.5019607843137255" d="M 185.5 12 Q 210.5 23.5 227 43.5 L 240 62.5 L 238 61.5 Q 229 44 214.5 32 Q 202.2 20.3 185.5 13 L 185.5 12 Z " /><path fill="rgb(254,126,0)" stroke="rgb(254,126,0)" stroke-width="1" opacity="0.5019607843137255" d="M 240.5 64 L 245 72.5 L 244 72.5 L 240.5 64 Z " /><path fill="rgb(254,126,0)" stroke="rgb(254,126,0)" stroke-width="1" opacity="0.5019607843137255" d="M 14.5 67 L 14 68.5 L 12.5 72 L 12 70.5 L 14.5 67 Z " /><path fill="rgb(254,126,0)" stroke="rgb(254,126,0)" stroke-width="1" opacity="0.5019607843137255" d="M 11.5 73 L 12 74.5 L 7.5 84 L 7 82.5 L 11.5 73 Z " /><path fill="rgb(254,126,0)" stroke="rgb(254,126,0)" stroke-width="1" opacity="0.5019607843137255" d="M 245.5 74 L 251 89.5 L 250 89.5 L 245.5 74 Z " /><path fill="rgb(254,126,0)" stroke="rgb(254,126,0)" stroke-width="1" opacity="0.5019607843137255" d="M 5.5 88 L 6 90.5 L 4.5 94 L 4 91.5 L 5.5 88 Z " /><path fill="rgb(254,126,0)" stroke="rgb(254,126,0)" stroke-width="1" opacity="0.5019607843137255" d="M 251.5 91 L 253 97.5 L 252 97.5 L 251.5 91 Z " /><path fill="rgb(254,126,0)" stroke="rgb(254,126,0)" stroke-width="1" opacity="0.5019607843137255" d="M 3.5 95 L 4 97.5 L 3 97.5 L 3.5 95 Z " /><path fill="rgb(254,126,0)" stroke="rgb(254,126,0)" stroke-width="1" opacity="0.5019607843137255" d="M 82.5 95 L 89 95.5 L 82.5 96 L 82.5 95 Z " /><path fill="rgb(254,126,0)" stroke="rgb(254,126,0)" stroke-width="1" opacity="0.5019607843137255" d="M 75.5 96 L 80 96.5 L 72.5 98 L 72.5 97 L 75.5 96 Z " /><path fill="rgb(254,126,0)" stroke="rgb(254,126,0)" stroke-width="1" opacity="0.5019607843137255" d="M 91.5 96 Q 101.6 96.4 108 100.5 L 106.5 101 Q 100.8 97.2 91.5 97 L 91.5 96 Z " /><path fill="rgb(254,126,0)" stroke="rgb(254,126,0)" stroke-width="1" opacity="0.5019607843137255" d="M 2.5 99 L 3 102.5 L 2 102.5 L 2.5 99 Z " /><path fill="rgb(254,126,0)" stroke="rgb(254,126,0)" stroke-width="1" opacity="0.5019607843137255" d="M 66.5 99 L 68 99.5 Q 51.4 105.9 42 119.5 L 33 135.5 L 34 138 L 56.5 147 L 60 144.5 Q 63.3 136.3 70.5 132 L 76.5 129 L 76.5 130 Q 67.8 133.3 63 140.5 L 58.5 147 L 55.5 148 L 33 137.5 L 32 134.5 Q 39.1 119.5 50.5 109 L 66.5 99 Z " /><path fill="rgb(254,126,0)" stroke="rgb(254,126,0)" stroke-width="1" opacity="0.5019607843137255" d="M 253.5 99 L 254 102.5 L 253 102.5 L 253.5 99 Z " /><path fill="rgb(254,126,0)" stroke="rgb(254,126,0)" stroke-width="1" opacity="0.5019607843137255" d="M 109.5 101 L 120.5 106 Q 133 117.5 149 125.5 L 147.5 126 L 120.5 107 L 109.5 102 L 109.5 101 Z " /><path fill="rgb(254,126,0)" stroke="rgb(254,126,0)" stroke-width="1" opacity="0.5019607843137255" d="M 1.5 104 L 2 108.5 L 1 108.5 L 1.5 104 Z " /><path fill="rgb(254,126,0)" stroke="rgb(254,126,0)" stroke-width="1" opacity="0.5019607843137255" d="M 199.5 105 L 212 110.5 L 210.5 111 L 199.5 106 L 197 107 Q 192.9 115.8 185.5 122 Q 179.2 128.2 167.5 129 L 167.5 128 L 177.5 126 L 189 117.5 L 197.5 106 L 199.5 105 Z " /><path fill="rgb(254,126,0)" stroke="rgb(254,126,0)" stroke-width="1" opacity="0.5019607843137255" d="M 254.5 105 L 255 109.5 L 254 109.5 L 254.5 105 Z " /><path fill="rgb(254,126,0)" stroke="rgb(254,126,0)" stroke-width="1" opacity="0.5019607843137255" d="M 0.5 111 L 1 118.5 L 0 118.5 L 0.5 111 Z " /><path fill="rgb(254,126,0)" stroke="rgb(254,126,0)" stroke-width="1" opacity="0.5019607843137255" d="M 213.5 111 Q 220.4 112.5 224 117.5 L 219 128.5 L 206.5 143 L 191.5 154 L 184.5 157 L 184.5 156 Q 203.3 147.8 215 132.5 Q 220.7 126.7 223 117.5 L 213.5 112 L 213.5 111 Z " /><path fill="rgb(254,126,0)" stroke="rgb(254,126,0)" stroke-width="1" opacity="0.5019607843137255" d="M 255.5 112 L 256 121.5 L 255 121.5 L 255.5 112 Z " /><path fill="rgb(254,126,0)" stroke="rgb(254,126,0)" stroke-width="1" opacity="0.5019607843137255" d="M 150.5 126 L 155 127.5 L 152.5 128 L 150.5 126 Z " /><path fill="rgb(254,126,0)" stroke="rgb(254,126,0)" stroke-width="1" opacity="0.5019607843137255" d="M 82.5 127 L 93 127.5 L 82.5 128 L 82.5 127 Z " /><path fill="rgb(254,126,0)" stroke="rgb(254,126,0)" stroke-width="1" opacity="0.5019607843137255" d="M 78.5 128 L 81 128.5 L 78.5 129 L 78.5 128 Z " /><path fill="rgb(254,126,0)" stroke="rgb(254,126,0)" stroke-width="1" opacity="0.5019607843137255" d="M 94.5 128 L 97 128.5 L 94.5 129 L 94.5 128 Z " /><path fill="rgb(254,126,0)" stroke="rgb(254,126,0)" stroke-width="1" opacity="0.5019607843137255" d="M 156.5 128 L 160 128.5 L 156.5 129 L 156.5 128 Z " /><path fill="rgb(254,126,0)" stroke="rgb(254,126,0)" stroke-width="1" opacity="0.5019607843137255" d="M 98.5 129 L 102 130.5 L 100.5 131 L 98.5 129 Z " /><path fill="rgb(254,126,0)" stroke="rgb(254,126,0)" stroke-width="1" opacity="0.5019607843137255" d="M 103.5 131 L 129.5 149 L 143 155.5 L 141.5 156 L 129.5 150 L 104.5 133 L 103.5 131 Z " /><path fill="rgb(254,126,0)" stroke="rgb(254,126,0)" stroke-width="1" opacity="0.5019607843137255" d="M 0.5 134 L 1 141.5 L 0 141.5 L 0.5 134 Z " /><path fill="rgb(254,126,0)" stroke="rgb(254,126,0)" stroke-width="1" opacity="0.5019607843137255" d="M 255.5 138 L 256 146.5 L 255 146.5 L 255.5 138 Z " /><path fill="rgb(254,126,0)" stroke="rgb(254,126,0)" stroke-width="1" opacity="0.5019607843137255" d="M 1.5 144 L 2 148.5 L 1 148.5 L 1.5 144 Z " /><path fill="rgb(254,126,0)" stroke="rgb(254,126,0)" stroke-width="1" opacity="0.5019607843137255" d="M 254.5 148 L 255 152.5 L 254 152.5 L 254.5 148 Z " /><path fill="rgb(254,126,0)" stroke="rgb(254,126,0)" stroke-width="1" opacity="0.5019607843137255" d="M 2.5 150 L 3 154.5 L 2 154.5 L 2.5 150 Z " /><path fill="rgb(254,126,0)" stroke="rgb(254,126,0)" stroke-width="1" opacity="0.5019607843137255" d="M 253.5 154 L 254 157.5 L 253 157.5 L 253.5 154 Z " /><path fill="rgb(254,126,0)" stroke="rgb(254,126,0)" stroke-width="1" opacity="0.5019607843137255" d="M 3.5 156 L 4 159.5 L 3 159.5 L 3.5 156 Z " /><path fill="rgb(254,126,0)" stroke="rgb(254,126,0)" stroke-width="1" opacity="0.5019607843137255" d="M 144.5 156 L 149 157.5 L 146.5 158 L 144.5 156 Z " /><path fill="rgb(254,126,0)" stroke="rgb(254,126,0)" stroke-width="1" opacity="0.5019607843137255" d="M 150.5 158 L 153 158.5 L 150.5 159 L 150.5 158 Z " /><path fill="rgb(254,126,0)" stroke="rgb(254,126,0)" stroke-width="1" opacity="0.5019607843137255" d="M 177.5 158 L 180 158.5 L 177.5 159 L 177.5 158 Z " /><path fill="rgb(254,126,0)" stroke="rgb(254,126,0)" stroke-width="1" opacity="0.5019607843137255" d="M 154.5 159 L 159 159.5 L 154.5 160 L 154.5 159 Z " /><path fill="rgb(254,126,0)" stroke="rgb(254,126,0)" stroke-width="1" opacity="0.5019607843137255" d="M 172.5 159 L 176 159.5 L 172.5 160 L 172.5 159 Z " /><path fill="rgb(254,126,0)" stroke="rgb(254,126,0)" stroke-width="1" opacity="0.5019607843137255" d="M 252.5 159 L 253 161.5 L 252 161.5 L 252.5 159 Z " /><path fill="rgb(254,126,0)" stroke="rgb(254,126,0)" stroke-width="1" opacity="0.5019607843137255" d="M 163.5 160 L 169 160.5 L 163.5 161 L 163.5 160 Z " /><path fill="rgb(254,126,0)" stroke="rgb(254,126,0)" stroke-width="1" opacity="0.5019607843137255" d="M 4.5 161 L 9 175.5 L 8 175.5 L 4 163.5 L 4.5 161 Z " /><path fill="rgb(254,126,0)" stroke="rgb(254,126,0)" stroke-width="1" opacity="0.5019607843137255" d="M 251.5 163 L 252 165.5 L 251 165.5 L 251.5 163 Z " /><path fill="rgb(254,126,0)" stroke="rgb(254,126,0)" stroke-width="1" opacity="0.5019607843137255" d="M 248.5 173 L 249 174.5 L 242.5 188 L 243 186.5 L 248.5 173 Z " /><path fill="rgb(254,126,0)" stroke="rgb(254,126,0)" stroke-width="1" opacity="0.5019607843137255" d="M 9.5 177 L 11 180.5 L 10 180.5 L 9.5 177 Z " /><path fill="rgb(254,126,0)" stroke="rgb(254,126,0)" stroke-width="1" opacity="0.5019607843137255" d="M 11.5 182 Q 23.6 209.4 45.5 227 Q 61.2 239.8 82 247.5 L 80.5 248 Q 51.2 236.8 32 215.5 Q 18.1 201.3 11.5 182 Z " /><path fill="rgb(254,126,0)" stroke="rgb(254,126,0)" stroke-width="1" opacity="0.5019607843137255" d="M 241.5 189 L 241 190.5 Q 230.2 212.2 212.5 227 Q 201 237.5 185.5 244 L 185.5 243 Q 208 233 223 215.5 Q 233.8 203.8 241.5 189 Z " /><path fill="rgb(254,126,0)" stroke="rgb(254,126,0)" stroke-width="1" opacity="0.5019607843137255" d="M 182.5 244 L 184 244.5 L 175.5 248 L 175.5 247 L 182.5 244 Z " /><path fill="rgb(254,126,0)" stroke="rgb(254,126,0)" stroke-width="1" opacity="0.5019607843137255" d="M 83.5 248 L 91 250.5 L 88.5 251 L 83.5 249 L 83.5 248 Z " /><path fill="rgb(254,126,0)" stroke="rgb(254,126,0)" stroke-width="1" opacity="0.5019607843137255" d="M 172.5 248 L 174 248.5 L 169.5 250 L 169.5 249 L 172.5 248 Z " /><path fill="rgb(254,126,0)" stroke="rgb(254,126,0)" stroke-width="1" opacity="0.5019607843137255" d="M 165.5 250 L 168 250.5 L 157.5 253 L 157.5 252 L 165.5 250 Z " /><path fill="rgb(254,126,0)" stroke="rgb(254,126,0)" stroke-width="1" opacity="0.5019607843137255" d="M 92.5 251 L 95 251.5 L 92.5 252 L 92.5 251 Z " /><path fill="rgb(254,126,0)" stroke="rgb(254,126,0)" stroke-width="1" opacity="0.5019607843137255" d="M 96.5 252 L 99 252.5 L 96.5 253 L 96.5 252 Z " /><path fill="rgb(254,126,0)" stroke="rgb(254,126,0)" stroke-width="1" opacity="0.5019607843137255" d="M 100.5 253 L 104 253.5 L 100.5 254 L 100.5 253 Z " /><path fill="rgb(254,126,0)" stroke="rgb(254,126,0)" stroke-width="1" opacity="0.5019607843137255" d="M 152.5 253 L 156 253.5 L 152.5 254 L 152.5 253 Z " /><path fill="rgb(254,126,0)" stroke="rgb(254,126,0)" stroke-width="1" opacity="0.5019607843137255" d="M 105.5 254 L 110 254.5 L 105.5 255 L 105.5 254 Z " /><path fill="rgb(254,126,0)" stroke="rgb(254,126,0)" stroke-width="1" opacity="0.5019607843137255" d="M 146.5 254 L 151 254.5 L 146.5 255 L 146.5 254 Z " /><path fill="rgb(254,126,0)" stroke="rgb(254,126,0)" stroke-width="1" opacity="0.5019607843137255" d="M 112.5 255 L 120 255.5 L 112.5 256 L 112.5 255 Z " /><path fill="rgb(254,126,0)" stroke="rgb(254,126,0)" stroke-width="1" opacity="0.5019607843137255" d="M 135.5 255 L 144 255.5 L 135.5 256 L 135.5 255 Z " /><path fill="rgb(254,121,0)" stroke="rgb(254,121,0)" stroke-width="1" opacity="0.996078431372549" d="M 112.5 1 L 115 1.5 L 112.5 2 L 112.5 1 Z " /><path fill="rgb(254,121,0)" stroke="rgb(254,121,0)" stroke-width="1" opacity="0.996078431372549" d="M 143.5 1 L 146 1.5 L 143.5 2 L 143.5 1 Z " /><path fill="rgb(254,121,0)" stroke="rgb(254,121,0)" stroke-width="1" opacity="0.996078431372549" d="M 57.5 20 L 56.5 22 L 57.5 20 Z " /><path fill="rgb(254,121,0)" stroke="rgb(254,121,0)" stroke-width="1" opacity="0.996078431372549" d="M 200.5 21 L 201.5 23 L 200.5 21 Z " /><path fill="rgb(254,121,0)" stroke="rgb(254,121,0)" stroke-width="1" opacity="0.996078431372549" d="M 54.5 22 L 53.5 24 L 54.5 22 Z " /><path fill="rgb(254,121,0)" stroke="rgb(254,121,0)" stroke-width="1" opacity="0.996078431372549" d="M 204.5 24 L 205.5 26 L 204.5 24 Z " /><path fill="rgb(254,121,0)" stroke="rgb(254,121,0)" stroke-width="1" opacity="0.996078431372549" d="M 50.5 25 L 49.5 27 L 50.5 25 Z " /><path fill="rgb(254,121,0)" stroke="rgb(254,121,0)" stroke-width="1" opacity="0.996078431372549" d="M 208.5 27 L 210.5 30 L 208.5 27 Z " /><path fill="rgb(254,121,0)" stroke="rgb(254,121,0)" stroke-width="1" opacity="0.996078431372549" d="M 46.5 28 L 31.5 44 L 46.5 28 Z " /><path fill="rgb(254,121,0)" stroke="rgb(254,121,0)" stroke-width="1" opacity="0.996078431372549" d="M 214.5 32 L 224.5 43 L 214.5 32 Z " /><path fill="rgb(254,121,0)" stroke="rgb(254,121,0)" stroke-width="1" opacity="0.996078431372549" d="M 227.5 46 L 229.5 49 L 227.5 46 Z " /><path fill="rgb(254,121,0)" stroke="rgb(254,121,0)" stroke-width="1" opacity="0.996078431372549" d="M 28.5 47 L 26.5 50 L 28.5 47 Z " /><path fill="rgb(254,121,0)" stroke="rgb(254,121,0)" stroke-width="1" opacity="0.996078431372549" d="M 230.5 50 L 232.5 53 L 230.5 50 Z " /><path fill="rgb(254,121,0)" stroke="rgb(254,121,0)" stroke-width="1" opacity="0.996078431372549" d="M 25.5 51 L 24.5 53 L 25.5 51 Z " /><path fill="rgb(254,121,0)" stroke="rgb(254,121,0)" stroke-width="1" opacity="0.996078431372549" d="M 233.5 54 L 234.5 56 L 233.5 54 Z " /><path fill="rgb(254,121,0)" stroke="rgb(254,121,0)" stroke-width="1" opacity="0.996078431372549" d="M 22.5 55 L 21.5 57 L 22.5 55 Z " /><path fill="rgb(254,121,0)" stroke="rgb(254,121,0)" stroke-width="1" opacity="0.996078431372549" d="M 235.5 57 L 236.5 59 L 235.5 57 Z " /><path fill="rgb(254,121,0)" stroke="rgb(254,121,0)" stroke-width="1" opacity="0.996078431372549" d="M 238.5 62 L 239.5 64 L 238.5 62 Z " /><path fill="rgb(254,121,0)" stroke="rgb(254,121,0)" stroke-width="1" opacity="0.996078431372549" d="M 79.5 95 L 82 95.5 L 79.5 96 L 79.5 95 Z " /><path fill="rgb(254,121,0)" stroke="rgb(254,121,0)" stroke-width="1" opacity="0.996078431372549" d="M 253.5 103 L 254 105.5 L 253 105.5 L 253.5 103 Z " /><path fill="rgb(254,121,0)" stroke="rgb(254,121,0)" stroke-width="1" opacity="0.996078431372549" d="M 53.5 106 L 51.5 109 L 53.5 106 Z " /><path fill="rgb(254,121,0)" stroke="rgb(254,121,0)" stroke-width="1" opacity="0.996078431372549" d="M 124.5 108 L 125.5 110 L 124.5 108 Z " /><path fill="rgb(254,121,0)" stroke="rgb(254,121,0)" stroke-width="1" opacity="0.996078431372549" d="M 195.5 108 L 194.5 110 L 195.5 108 Z " /><path fill="rgb(254,121,0)" stroke="rgb(254,121,0)" stroke-width="1" opacity="0.996078431372549" d="M 127.5 110 L 129.5 113 L 127.5 110 Z " /><path fill="rgb(254,121,0)" stroke="rgb(254,121,0)" stroke-width="1" opacity="0.996078431372549" d="M 254.5 110 L 255 112.5 L 254 112.5 L 254.5 110 Z " /><path fill="rgb(254,121,0)" stroke="rgb(254,121,0)" stroke-width="1" opacity="0.996078431372549" d="M 192.5 112 L 190.5 115 L 192.5 112 Z " /><path fill="rgb(254,121,0)" stroke="rgb(254,121,0)" stroke-width="1" opacity="0.996078431372549" d="M 131.5 113 L 133.5 116 L 131.5 113 Z " /><path fill="rgb(254,121,0)" stroke="rgb(254,121,0)" stroke-width="1" opacity="0.996078431372549" d="M 221.5 114 L 223.5 117 L 221.5 114 Z " /><path fill="rgb(254,121,0)" stroke="rgb(254,121,0)" stroke-width="1" opacity="0.996078431372549" d="M 44.5 115 L 42.5 118 L 44.5 115 Z " /><path fill="rgb(254,121,0)" stroke="rgb(254,121,0)" stroke-width="1" opacity="0.996078431372549" d="M 136.5 117 L 137.5 119 L 136.5 117 Z " /><path fill="rgb(254,121,0)" stroke="rgb(254,121,0)" stroke-width="1" opacity="0.996078431372549" d="M 188.5 117 L 186.5 120 L 188.5 117 Z " /><path fill="rgb(254,121,0)" stroke="rgb(254,121,0)" stroke-width="1" opacity="0.996078431372549" d="M 0.5 119 L 1 133.5 L 0 133.5 L 0.5 119 Z " /><path fill="rgb(254,121,0)" stroke="rgb(254,121,0)" stroke-width="1" opacity="0.996078431372549" d="M 139.5 119 L 140.5 121 L 139.5 119 Z " /><path fill="rgb(254,121,0)" stroke="rgb(254,121,0)" stroke-width="1" opacity="0.996078431372549" d="M 40.5 120 L 39.5 122 L 40.5 120 Z " /><path fill="rgb(254,121,0)" stroke="rgb(254,121,0)" stroke-width="1" opacity="0.996078431372549" d="M 142.5 121 L 143.5 123 L 142.5 121 Z " /><path fill="rgb(254,121,0)" stroke="rgb(254,121,0)" stroke-width="1" opacity="0.996078431372549" d="M 183.5 121 L 182.5 123 L 183.5 121 Z " /><path fill="rgb(254,121,0)" stroke="rgb(254,121,0)" stroke-width="1" opacity="0.996078431372549" d="M 255.5 122 L 256 137.5 L 255 137.5 L 255.5 122 Z " /><path fill="rgb(254,121,0)" stroke="rgb(254,121,0)" stroke-width="1" opacity="0.996078431372549" d="M 38.5 123 L 37.5 125 L 38.5 123 Z " /><path fill="rgb(254,121,0)" stroke="rgb(254,121,0)" stroke-width="1" opacity="0.996078431372549" d="M 160.5 128 L 167 128.5 L 160.5 129 L 160.5 128 Z " /><path fill="rgb(254,121,0)" stroke="rgb(254,121,0)" stroke-width="1" opacity="0.996078431372549" d="M 217.5 130 L 216.5 132 L 217.5 130 Z " /><path fill="rgb(254,121,0)" stroke="rgb(254,121,0)" stroke-width="1" opacity="0.996078431372549" d="M 73.5 131 L 72.5 133 L 73.5 131 Z " /><path fill="rgb(254,121,0)" stroke="rgb(254,121,0)" stroke-width="1" opacity="0.996078431372549" d="M 70.5 133 L 63.5 141 L 70.5 133 Z " /><path fill="rgb(254,121,0)" stroke="rgb(254,121,0)" stroke-width="1" opacity="0.996078431372549" d="M 107.5 134 L 108.5 136 L 107.5 134 Z " /><path fill="rgb(254,121,0)" stroke="rgb(254,121,0)" stroke-width="1" opacity="0.996078431372549" d="M 214.5 134 L 211.5 138 L 214.5 134 Z " /><path fill="rgb(254,121,0)" stroke="rgb(254,121,0)" stroke-width="1" opacity="0.996078431372549" d="M 110.5 136 L 111.5 138 L 110.5 136 Z " /><path fill="rgb(254,121,0)" stroke="rgb(254,121,0)" stroke-width="1" opacity="0.996078431372549" d="M 113.5 138 L 114.5 140 L 113.5 138 Z " /><path fill="rgb(254,121,0)" stroke="rgb(254,121,0)" stroke-width="1" opacity="0.996078431372549" d="M 117.5 141 L 118.5 143 L 117.5 141 Z " /><path fill="rgb(254,121,0)" stroke="rgb(254,121,0)" stroke-width="1" opacity="0.996078431372549" d="M 62.5 142 L 61.5 144 L 62.5 142 Z " /><path fill="rgb(254,121,0)" stroke="rgb(254,121,0)" stroke-width="1" opacity="0.996078431372549" d="M 205.5 143 L 202.5 147 L 205.5 143 Z " /><path fill="rgb(254,121,0)" stroke="rgb(254,121,0)" stroke-width="1" opacity="0.996078431372549" d="M 60.5 145 L 59.5 147 L 60.5 145 Z " /><path fill="rgb(254,121,0)" stroke="rgb(254,121,0)" stroke-width="1" opacity="0.996078431372549" d="M 124.5 146 L 125.5 148 L 124.5 146 Z " /><path fill="rgb(254,121,0)" stroke="rgb(254,121,0)" stroke-width="1" opacity="0.996078431372549" d="M 199.5 148 L 198.5 150 L 199.5 148 Z " /><path fill="rgb(254,121,0)" stroke="rgb(254,121,0)" stroke-width="1" opacity="0.996078431372549" d="M 196.5 150 L 195.5 152 L 196.5 150 Z " /><path fill="rgb(254,121,0)" stroke="rgb(254,121,0)" stroke-width="1" opacity="0.996078431372549" d="M 193.5 152 L 192.5 154 L 193.5 152 Z " /><path fill="rgb(254,121,0)" stroke="rgb(254,121,0)" stroke-width="1" opacity="0.996078431372549" d="M 159.5 160 L 163 160.5 L 159.5 161 L 159.5 160 Z " /><path fill="rgb(254,121,0)" stroke="rgb(254,121,0)" stroke-width="1" opacity="0.996078431372549" d="M 169.5 160 L 172 160.5 L 169.5 161 L 169.5 160 Z " /><path fill="rgb(254,121,0)" stroke="rgb(254,121,0)" stroke-width="1" opacity="0.996078431372549" d="M 17.5 193 L 18.5 195 L 17.5 193 Z " /><path fill="rgb(254,121,0)" stroke="rgb(254,121,0)" stroke-width="1" opacity="0.996078431372549" d="M 237.5 195 L 236.5 197 L 237.5 195 Z " /><path fill="rgb(254,121,0)" stroke="rgb(254,121,0)" stroke-width="1" opacity="0.996078431372549" d="M 20.5 198 L 21.5 200 L 20.5 198 Z " /><path fill="rgb(254,121,0)" stroke="rgb(254,121,0)" stroke-width="1" opacity="0.996078431372549" d="M 235.5 198 L 234.5 200 L 235.5 198 Z " /><path fill="rgb(254,121,0)" stroke="rgb(254,121,0)" stroke-width="1" opacity="0.996078431372549" d="M 22.5 201 L 23.5 203 L 22.5 201 Z " /><path fill="rgb(254,121,0)" stroke="rgb(254,121,0)" stroke-width="1" opacity="0.996078431372549" d="M 233.5 201 L 232.5 203 L 233.5 201 Z " /><path fill="rgb(254,121,0)" stroke="rgb(254,121,0)" stroke-width="1" opacity="0.996078431372549" d="M 231.5 204 L 229.5 207 L 231.5 204 Z " /><path fill="rgb(254,121,0)" stroke="rgb(254,121,0)" stroke-width="1" opacity="0.996078431372549" d="M 25.5 205 L 26.5 207 L 25.5 205 Z " /><path fill="rgb(254,121,0)" stroke="rgb(254,121,0)" stroke-width="1" opacity="0.996078431372549" d="M 28.5 209 L 31.5 213 L 28.5 209 Z " /><path fill="rgb(254,121,0)" stroke="rgb(254,121,0)" stroke-width="1" opacity="0.996078431372549" d="M 227.5 209 L 225.5 212 L 227.5 209 Z " /><path fill="rgb(254,121,0)" stroke="rgb(254,121,0)" stroke-width="1" opacity="0.996078431372549" d="M 222.5 215 L 213.5 225 L 222.5 215 Z " /><path fill="rgb(254,121,0)" stroke="rgb(254,121,0)" stroke-width="1" opacity="0.996078431372549" d="M 42.5 223 L 45.5 227 L 42.5 223 Z " /><path fill="rgb(254,121,0)" stroke="rgb(254,121,0)" stroke-width="1" opacity="0.996078431372549" d="M 210.5 226 L 207.5 230 L 210.5 226 Z " /><path fill="rgb(254,121,0)" stroke="rgb(254,121,0)" stroke-width="1" opacity="0.996078431372549" d="M 48.5 228 L 50.5 231 L 48.5 228 Z " /><path fill="rgb(254,121,0)" stroke="rgb(254,121,0)" stroke-width="1" opacity="0.996078431372549" d="M 205.5 230 L 203.5 233 L 205.5 230 Z " /><path fill="rgb(254,121,0)" stroke="rgb(254,121,0)" stroke-width="1" opacity="0.996078431372549" d="M 52.5 231 L 53.5 233 L 52.5 231 Z " /><path fill="rgb(254,121,0)" stroke="rgb(254,121,0)" stroke-width="1" opacity="0.996078431372549" d="M 55.5 233 L 56.5 235 L 55.5 233 Z " /><path fill="rgb(254,121,0)" stroke="rgb(254,121,0)" stroke-width="1" opacity="0.996078431372549" d="M 201.5 233 L 200.5 235 L 201.5 233 Z " /><path fill="rgb(254,121,0)" stroke="rgb(254,121,0)" stroke-width="1" opacity="0.996078431372549" d="M 198.5 235 L 197.5 237 L 198.5 235 Z " /><path fill="rgb(254,121,0)" stroke="rgb(254,121,0)" stroke-width="1" opacity="0.996078431372549" d="M 120.5 255 L 127 255.5 L 120.5 256 L 120.5 255 Z " /><path fill="rgb(254,121,0)" stroke="rgb(254,121,0)" stroke-width="1" opacity="0.996078431372549" d="M 128.5 255 L 135 255.5 L 128.5 256 L 128.5 255 Z " /><path fill="rgb(255,121,0)" stroke="rgb(255,121,0)" stroke-width="1" opacity="1" d="M 122.5 0 L 134.5 0 L 135.5 1 L 156.5 3 L 181.5 11 Q 208.8 23.8 227 45.5 Q 243.1 64.4 251 91.5 L 255 113.5 L 255 145.5 L 250 168.5 L 241 189.5 Q 229.2 210.7 211.5 226 Q 195.6 240.1 173.5 248 L 149.5 254 L 128.5 255 L 127.5 256 L 126.5 255 L 112.5 255 L 111.5 254 L 100.5 253 Q 83.5 249 69.5 242 Q 47.6 230.9 32 213.5 Q 14.6 194.4 6 166.5 L 1 141.5 L 1 111.5 L 5 92.5 L 16 65.5 Q 28.9 42.9 48.5 27 Q 61.3 16.8 77.5 10 L 96.5 4 L 106.5 2 L 121.5 1 L 122.5 0 Z M 80 95 L 68 98 L 54 106 L 39 122 L 32 134 L 32 137 L 36 140 L 55 148 L 60 147 L 63 142 Q 70 132 83 128 L 92 128 L 102 131 L 131 151 L 146 158 L 160 161 L 172 161 L 182 159 Q 194 155 203 147 L 218 131 L 224 121 L 224 117 L 222 114 L 203 105 L 199 105 L 190 116 Q 183 125 171 128 Q 158 130 151 126 Q 136 119 125 108 L 110 100 L 91 95 L 80 95 Z " /><path fill="rgb(0,0,0)" stroke="rgb(0,0,0)" stroke-width="1" opacity="0" d="M 0 0 L 114 0.5 Q 83.3 3.3 62.5 16 Q 42.9 27.4 29 44.5 Q 16.1 59.6 8 79.5 L 2 99.5 L 0.5 111 L 0 0 Z " /><path fill="rgb(0,0,0)" stroke="rgb(0,0,0)" stroke-width="1" opacity="0" d="M 144.5 0 L 256 0 L 256 111.5 L 255 111.5 L 253 94.5 L 248 78.5 L 242 65.5 Q 230.8 44.7 213.5 30 Q 198.2 16.3 177.5 8 L 161.5 3 L 144.5 1 L 144.5 0 Z " /><path fill="rgb(0,0,0)" stroke="rgb(0,0,0)" stroke-width="1" opacity="0" d="M 80.5 96 L 90.5 96 L 108.5 101 L 120.5 107 L 143.5 124 L 152.5 128 Q 160 130.5 171.5 129 Q 184.1 125.6 191 116.5 L 197 107 L 201.5 106 L 220.5 115 L 223 117.5 Q 216.1 135.6 201.5 146 L 183.5 157 L 171.5 160 L 159.5 160 L 143.5 156 L 129.5 149 Q 116.1 137.4 99.5 129 L 92.5 127 L 82.5 127 Q 68.4 129.9 62 140.5 L 58.5 146 L 55.5 147 L 34 138 L 33 134.5 Q 41.1 117.1 55.5 106 L 68.5 99 L 80.5 96 Z " /><path fill="rgb(0,0,0)" stroke="rgb(0,0,0)" stroke-width="1" opacity="0" d="M 0.5 142 L 5 167.5 L 11 183.5 Q 21.7 206.8 39.5 223 Q 55.7 237.8 77.5 247 L 100.5 254 L 112 255.5 L 0 256 L 0.5 142 Z " /><path fill="rgb(0,0,0)" stroke="rgb(0,0,0)" stroke-width="1" opacity="0" d="M 255.5 147 L 256 256 L 144 255.5 L 171.5 250 L 190.5 242 Q 210.6 231.1 225 214.5 Q 236.7 201.2 245 184.5 Q 252.9 168.4 255.5 147 Z " /></svg>